<?xml version="1.0" encoding="UTF-8" standalone="no"?>
<svg
   xmlns:dc="http://purl.org/dc/elements/1.1/"
   xmlns:cc="http://creativecommons.org/ns#"
   xmlns:rdf="http://www.w3.org/1999/02/22-rdf-syntax-ns#"
   xmlns:svg="http://www.w3.org/2000/svg"
   xmlns="http://www.w3.org/2000/svg"
   xmlns:sodipodi="http://sodipodi.sourceforge.net/DTD/sodipodi-0.dtd"
   xmlns:inkscape="http://www.inkscape.org/namespaces/inkscape"
   version="1"
   viewBox="0 0 48 48"
   enable-background="new 0 0 48 48"
   id="svg8"
   sodipodi:docname="Icons8_flat_sim_card.svg"
   inkscape:version="1.0.2 (e86c870879, 2021-01-15)">
  <metadata
     id="metadata14">
    <rdf:RDF>
      <cc:Work
         rdf:about="">
        <dc:format>image/svg+xml</dc:format>
        <dc:type
           rdf:resource="http://purl.org/dc/dcmitype/StillImage" />
      </cc:Work>
    </rdf:RDF>
  </metadata>
  <defs
     id="defs12" />
  <sodipodi:namedview
     pagecolor="#ffffff"
     bordercolor="#666666"
     borderopacity="1"
     objecttolerance="10"
     gridtolerance="10"
     guidetolerance="10"
     inkscape:pageopacity="0"
     inkscape:pageshadow="2"
     inkscape:window-width="1848"
     inkscape:window-height="1016"
     id="namedview10"
     showgrid="false"
     inkscape:zoom="12.698459"
     inkscape:cx="59.812621"
     inkscape:cy="18.894067"
     inkscape:window-x="72"
     inkscape:window-y="27"
     inkscape:window-maximized="1"
     inkscape:current-layer="svg8" />
  <path
     fill="#009688"
     d="M36,45H12c-2.2,0-4-1.8-4-4V7c0-2.2,1.8-4,4-4h16.3c1.1,0,2.1,0.4,2.8,1.2l7.7,7.7c0.8,0.8,1.2,1.8,1.2,2.8 V41C40,43.2,38.2,45,36,45z"
     id="path2" />
  <path
     fill="#FF9800"
     d="M32,38H16c-1.1,0-2-0.9-2-2V24c0-1.1,0.9-2,2-2h16c1.1,0,2,0.9,2,2v12C34,37.1,33.1,38,32,38z"
     id="path4" />
  <path
     fill="#FFD54F"
     d="M29,30v3h5v2h-5v3h-2V22h2v6h5v2H29z M14,29v2h5v2h-5v2h5v3h2v-9H14z"
     id="path6" />
  <text
     xml:space="preserve"
     style="font-size:8px;line-height:1.25;font-family:sans-serif;letter-spacing:0px;word-spacing:0px"
     x="11.764951"
     y="16.289087"
     id="text18"><tspan
       sodipodi:role="line"
       id="tspan16"
       x="11.764951"
       y="16.289087"
       style="font-style:normal;font-variant:normal;font-weight:normal;font-stretch:normal;font-size:8px;font-family:Mallanna;-inkscape-font-specification:Mallanna">Modbus</tspan></text>
</svg>
